<svg xmlns="http://www.w3.org/2000/svg" width="256" height="256"><path fill="#1976D2" fill-opacity=".325" fill-rule="evenodd" d="M0 127.511v111.497l128.25-.254 128.25-.254.254-111.5.255-111.5-128.505.258L0 16.015zm.483-.011c0 61.6.12 86.653.267 55.673s.147-81.38 0-112S.483 65.9.483 127.5"/><path fill="#1976D2" fill-opacity=".373" fill-rule="evenodd" d="M87.497 18.349c-5.798 2.7-13.697 10.886-17.795 18.441-5.358 9.875-7.759 29.449-5.685 46.341C65.191 92.693 67 98.689 67 93.019c0-3.968 6.974-27.05 10.459-34.616 5.007-10.87 12.724-18.439 18.741-18.381 4.582.044 10.497 3.889 20.575 13.375 5.651 5.319 11.417 10.106 12.815 10.637 2.897 1.102 7.479 1.261 9.871.343 2.295-.881 5.541-7.682 5.529-11.587-.027-9.103-11.539-23.176-24.496-29.944-13.82-7.219-24.133-8.624-32.997-4.497m86.003 8.04c-14.033 6.13-18.789 23.928-9.843 36.837 4.131 5.962 10.538 9.275 17.843 9.228 6.624-.042 10.585-1.693 15.247-6.354 14.825-14.826 4.882-41.227-15.465-41.061-2.63.022-6.132.629-7.782 1.35m79.557 43.894c-.682 2.319-3.111 7.817-5.398 12.217-7.915 15.226-28.952 33.24-35.784 30.642-4.969-1.888-9.46-8.393-12.875-18.642-6.09-18.279-15.228-23.396-21.974-12.303-4.516 7.426-3.208 18.956 3.627 31.963 4.108 7.817 12.422 16.817 18.309 19.821 11.297 5.763 28.358-1.584 41.02-17.664 4.92-6.248 12.277-21.509 14.443-29.961 1.683-6.565 2.134-18.893.723-19.764-.468-.29-1.409 1.371-2.091 3.691M78.152 110.525c-3.758 3.163-5.327 9.517-3.948 15.985.693 3.247 2.372 6.053 5.991 10.013 4.426 4.843 4.869 5.711 3.694 7.24-3.692 4.804-19.707 23.176-30.06 34.482-6.419 7.011-17.423 19.386-24.453 27.501S12.835 224.487 8.241 229.36s-8.124 9.091-7.843 9.372c.873.872 11.246-5.439 34.102-20.749 12.1-8.105 29.875-19.925 39.5-26.265s20.2-13.939 23.5-16.885c12.748-11.383 15.434-13.184 17.95-12.038 4.398 2.004 9.55 7.321 9.55 9.856 0 5.252-15.741 15.873-47.25 31.885-7.013 3.563-12.75 6.925-12.75 7.471 0 1.276 6.325 1.263 17.026-.034 11.07-1.343 37.322-9.055 47.514-13.959 12.954-6.232 23.497-18.481 23.438-27.231-.051-7.58-10.017-21.788-26.253-37.426-12.413-11.956-21.351-18.531-30.494-22.431-8.614-3.675-14.044-3.796-18.079-.401"/><path fill="#1976D2" fill-opacity=".935" fill-rule="evenodd" d="M92.897 16.934c-12.974 2.534-24.362 17.282-27.58 35.718-1.741 9.971-1.409 34.626.51 37.932 1.084 1.868 1.113 1.866 1.143-.084.055-3.641 8.014-28.525 11.041-34.521C83.8 44.51 92.142 38.033 98.701 39.914c5.209 1.494 7.376 3.081 17.971 13.157 8.479 8.063 11.071 9.961 14.571 10.666 6.024 1.214 8.67.453 10.85-3.122 2.714-4.451 2.464-11.105-.654-17.361-5.285-10.607-21.638-22.439-35.542-25.717-6.917-1.63-7.585-1.661-13-.603m81.622 9.664c-4.735 1.733-10.011 6.557-12.471 11.402-7.675 15.115 2.987 34 19.196 34 11.314 0 19.911-7.872 22.174-20.304 1.72-9.443-5.82-21.941-15.155-25.122-5.577-1.9-8.501-1.895-13.744.024m79.6 41.955c-.196 3.376-7.515 17.512-12.446 24.038-4.723 6.249-16.294 16.577-21.979 19.617-1.757.94-4.43 1.727-5.941 1.75-4.075.062-10.26-5.993-12.549-12.286a9789 9789 0 0 0-4.2-11.518C194.128 82.286 189.432 77 185.319 77c-3.325 0-7.547 3.792-9.255 8.315-4.95 13.101 6.817 38.651 21.878 47.506 10.311 6.061 23.143 2.066 36.727-11.437 5.847-5.812 8.104-9.039 12.237-17.505 6.662-13.645 9.59-25 8.287-32.141-.525-2.881-1.009-4.314-1.074-3.185m-173.698 40.82c-3.56 1.603-6.424 6.861-6.415 11.778.01 5.992 1.888 10.35 6.848 15.887l4.87 5.438-9.79 11.512C70.55 160.32 61.782 170.225 56.45 176s-15.356 17.025-22.276 25c-6.921 7.975-17.262 19.563-22.98 25.75C5.475 232.938 1.089 238 1.448 238c1.695 0 9.817-5.158 46.514-29.539 41.803-27.773 41.611-27.637 55.996-39.711l9.233-7.75 2.981 1.75c4.685 2.751 8.619 6.547 9.317 8.99 1.48 5.182-12.827 15.211-46.989 32.938l-14 7.265 8-.006c11.134-.009 20.651-1.904 39.106-7.786 23.203-7.396 32.55-13.657 38.547-25.82 3.329-6.752 3.29-9.498-.238-16.469-4.55-8.99-27.106-33.077-39.915-42.624-6.372-4.749-17.587-10.024-22.854-10.75-2.061-.284-4.985.101-6.725.885"/></svg>